<?xml version="1.0" encoding="UTF-8"?><!DOCTYPE svg PUBLIC "-//W3C//DTD SVG 1.1//EN" "http://www.w3.org/Graphics/SVG/1.1/DTD/svg11.dtd"><svg xmlns="http://www.w3.org/2000/svg" xmlns:xlink="http://www.w3.org/1999/xlink"><symbol id="icon--aircraft" viewBox="0 0 61 61"><path fill-rule="evenodd" fill="#5DB442" d="M59.133 1.283a2.082 2.082 0 00-2.277-.067L1.149 33.355C.446 33.756.011 34.526.078 35.33c.067.837.569 1.54 1.339 1.841l15.801 6.461v15.132c0 .871.536 1.674 1.373 2.009.234.1.502.134.77.134.603 0 1.172-.235 1.573-.703l9.977-10.948 17.643 7.198c.267.101.535.168.803.168a2.18 2.18 0 001.038-.268c.569-.335.971-.871 1.071-1.507l8.571-51.422a2.17 2.17 0 00-.904-2.142zm-11.45 50.183l-16.471-6.729 16.003-26.682-28.892 21.392-11.248-4.586L55.082 7.175l-7.399 44.291z"/></symbol><symbol id="icon--arrow-right" viewBox="0 0 7 12"><mask id="a" maskUnits="userSpaceOnUse" x="0" y="0" width="7" height="12"><path fill-rule="evenodd" clip-rule="evenodd" d="M0 0h7v12H0V0z" fill="#fff"/></mask><g mask="url(#a)"><path fill-rule="evenodd" clip-rule="evenodd" d="M6.748 6.594l-5.28 5.16a.874.874 0 01-1.216 0 .827.827 0 010-1.189L4.924 6 .252 1.435a.827.827 0 010-1.189.874.874 0 011.216 0l5.28 5.16a.828.828 0 010 1.188z" fill="#fff"/></g></symbol><symbol id="icon--bags" viewBox="0 0 54 54"><path fill-rule="evenodd" fill="#FEFFFE" d="M53.856 30.053c0-1.171-.97-2.142-2.142-2.142h-7.499v-9.843l5.791-5.791a2.122 2.122 0 000-3.013 2.122 2.122 0 00-3.013 0l-5.791 5.791H12.947L7.155 9.264a2.122 2.122 0 00-3.013 0 2.122 2.122 0 000 3.013l5.792 5.791v9.843h-7.5a2.158 2.158 0 00-2.142 2.142c0 1.172.971 2.143 2.142 2.143h7.5c0 3.883.769 6.863 1.941 9.173l-6.762 7.599a2.197 2.197 0 00.167 3.047 2.2 2.2 0 001.44.535 2.16 2.16 0 001.607-.703l6.126-6.93s4.419 4.419 10.479 4.419V19.34h4.285v29.996c5.691 0 10.077-4.017 10.077-4.017l6.628 6.595c.402.435.971.636 1.507.636.535 0 1.104-.201 1.506-.636a2.122 2.122 0 000-3.013l-6.963-6.997c1.339-2.377 2.243-5.523 2.243-9.708h7.499a2.157 2.157 0 002.142-2.143zM37.787 10.77A10.701 10.701 0 0027.074.057 10.702 10.702 0 0016.361 10.77h21.426z"/></symbol><symbol id="icon--book" viewBox="0 0 56 52"><path fill-rule="evenodd" fill="#5DB442" d="M55.091 11.917c-.502-.67-1.205-1.138-1.975-1.44.033.603.033 1.273-.168 1.909L42.905 45.428c-.368 1.205-1.808 1.908-3.047 1.908h-30.9c-1.841 0-4.151-.401-4.82-2.343-.268-.737-.235-1.038.033-1.44.301-.401.837-.502 1.272-.502h29.092c4.252 0 5.122-1.138 6.696-6.294l9.173-30.33c.469-1.574.268-3.147-.603-4.353C48.964.903 47.558.2 45.985.2H20.508c-.569 0-1.138.167-1.707.301l.033-.1c-4.251-1.206-4.519 3.381-5.925 5.456-.536.77-1.339 1.44-1.473 2.076-.101.603.234 1.172.167 1.741-.201 1.774-1.54 4.955-2.343 6.059-.503.67-1.239 1.005-1.473 1.775-.201.535.134 1.305.067 2.008-.168 1.574-1.34 4.553-2.243 6.093-.335.603-.971 1.072-1.139 1.708-.167.569.168 1.305 0 1.941-.368 1.741-1.506 4.453-2.511 6.127-.535.904-1.238 1.473-1.372 2.276-.067.402.234.837.201 1.373-.034.803-.168 1.473-.235 2.143-.468 1.272-.468 2.745.067 4.251 1.239 3.482 4.888 6.194 8.303 6.194h30.9c2.879 0 5.825-2.21 6.662-5.056l9.206-30.33c.469-1.54.235-3.114-.602-4.319zm-35.621.067l.703-2.143c.201-.602.837-1.071 1.406-1.071h20.355c.603 0 .937.469.736 1.071l-.703 2.143c-.2.603-.837 1.071-1.406 1.071H20.207c-.603 0-.938-.468-.737-1.071zm-2.778 8.57l.703-2.142c.201-.603.837-1.072 1.406-1.072h20.354c.603 0 .938.469.737 1.072l-.703 2.142c-.201.603-.837 1.072-1.406 1.072H17.428c-.602 0-.937-.469-.736-1.072z"/></symbol><symbol id="icon--check" viewBox="0 0 16 14"><path d="M13.217 7.927a.28.28 0 00-.178-.259.239.239 0 00-.107-.027.285.285 0 00-.206.09l-.571.571a.275.275 0 00-.08.196v2.268c0 .785-.643 1.428-1.429 1.428H3.22a1.433 1.433 0 01-1.429-1.428V3.339c0-.786.643-1.428 1.429-1.428h7.426c.134 0 .268.018.402.053a.263.263 0 00.08.018.311.311 0 00.206-.089l.437-.438a.276.276 0 00.08-.258.29.29 0 00-.16-.206 2.496 2.496 0 00-1.045-.223H3.22A2.572 2.572 0 00.649 3.339v7.427a2.57 2.57 0 002.571 2.57h7.426a2.57 2.57 0 002.571-2.57V7.927zm2.062-4.365a.711.711 0 000-1.018l-.982-.981a.71.71 0 00-1.017 0L7.504 7.338 5.157 4.99a.713.713 0 00-1.018 0l-.982.982a.713.713 0 000 1.018l3.839 3.838a.71.71 0 001.017 0l7.266-7.266z"/></symbol><symbol id="icon--check2" viewBox="0 0 10 10"><path fill-rule="evenodd" fill="#5DB442" d="M7.847 4.299a.351.351 0 01-.1.252L4.714 7.583a.368.368 0 01-.257.106.365.365 0 01-.251-.106L2.184 5.561a.349.349 0 01-.1-.251c0-.095.033-.19.1-.257l.509-.502a.354.354 0 01.251-.106c.095 0 .184.039.251.106l1.262 1.262L6.736 3.54a.354.354 0 01.251-.106c.095 0 .185.039.252.106l.508.502c.067.067.1.162.1.257zm1.408.905a4.29 4.29 0 00-8.578 0 4.29 4.29 0 008.578 0z"/></symbol><symbol id="icon--cup" viewBox="0 0 64 48"><path fill-rule="evenodd" fill="#5DB442" d="M56.642 13.34a6.43 6.43 0 01-6.428 6.428h-2.142V6.913h2.142a6.43 6.43 0 016.428 6.427zM.935 39.051c0 4.721 3.85 8.571 8.57 8.571h42.852c4.72 0 8.57-3.85 8.57-8.571H.935zM63.07 13.34C63.07 6.243 57.312.485 50.214.485H11.648a2.158 2.158 0 00-2.143 2.142v24.64c0 4.118 3.382 7.499 7.499 7.499h23.569c4.117 0 7.499-3.381 7.499-7.499v-1.071h2.142c7.098 0 12.856-5.758 12.856-12.856z"/></symbol><symbol id="icon--exit" viewBox="0 0 61 53"><path fill-rule="evenodd" fill="#5DB442" d="M47.215 31.982c0-.603-.469-1.071-1.072-1.071h-2.142c-.603 0-1.072.468-1.072 1.071v10.713c0 2.946-2.41 5.356-5.356 5.356H9.719c-2.946 0-5.356-2.41-5.356-5.356V14.841c0-2.946 2.41-5.356 5.356-5.356h23.569c.602 0 1.071-.469 1.071-1.071V6.271c0-.603-.469-1.071-1.071-1.071H9.719C4.396 5.2.078 9.518.078 14.841v27.854c0 5.323 4.318 9.641 9.641 9.641h27.854c5.323 0 9.642-4.318 9.642-9.641V31.982zM60.07 3.057A2.157 2.157 0 0057.927.915h-17.14c-1.172 0-2.143.97-2.143 2.142 0 .569.235 1.105.636 1.507l5.892 5.892-21.827 21.827a1.153 1.153 0 00-.335.77c0 .268.134.569.335.77l3.816 3.817c.201.201.502.334.77.334s.569-.133.77-.334l21.828-21.828 5.892 5.892c.402.402.937.636 1.506.636a2.158 2.158 0 002.143-2.142V3.057z"/></symbol><symbol id="icon--fb" viewBox="0 0 7 12"><path fill-rule="evenodd" fill="#FEFEFE" d="M6.424.791C6.243.765 5.62.711 4.897.711c-1.514 0-2.552.924-2.552 2.619v1.46H.636v1.983h1.709v5.084h2.049V6.773h1.702l.261-1.983H4.394V3.524c0-.569.154-.964.978-.964h1.052V.791z"/></symbol><symbol id="icon--folder" viewBox="0 0 64 48"><path fill-rule="evenodd" fill="#5DB442" d="M63.84 27.785c0-1.506-1.708-1.874-2.913-1.874H24.503c-2.946 0-6.896 1.807-8.838 4.084L4.417 43.252c-.536.603-1.038 1.406-1.038 2.21 0 1.506 1.707 1.874 2.912 1.874h36.424c2.946 0 6.897-1.807 8.838-4.084l11.249-13.257c.536-.603 1.038-1.406 1.038-2.21zM52.357 16.269c0-4.118-3.381-7.499-7.499-7.499H26.646V7.699C26.646 3.581 23.265.2 19.147.2H8.434C4.316.2.935 3.581.935 7.699v32.138c0 .268.033.57.033.837l.168-.201 11.282-13.257c2.712-3.214 7.901-5.59 12.085-5.59h27.854v-5.357z"/></symbol><symbol id="icon--gl" viewBox="0 0 16 11"><path fill-rule="evenodd" fill="#FEFEFE" d="M9.626 5.827c0-.322-.034-.57-.08-.817H4.91v1.688h2.787c-.114.716-.844 2.116-2.787 2.116-1.675 0-3.041-1.386-3.041-3.101S3.235 2.611 4.91 2.611c.958 0 1.594.409 1.956.757l1.333-1.279C7.342 1.285 6.236.803 4.91.803A4.908 4.908 0 000 5.713a4.908 4.908 0 004.91 4.91c2.834 0 4.716-1.99 4.716-4.796zm5.808-.817h-1.4v-1.4h-1.407v1.4h-1.4v1.406h1.4v1.4h1.407v-1.4h1.4V5.01z"/></symbol><symbol id="icon--in" viewBox="0 0 11 11"><path fill-rule="evenodd" fill="#FEFEFE" d="M2.338 3.898H.127v6.638h2.211V3.898zm.14-2.05C2.472 1.198 2.003.702 1.246.702.496.702 0 1.198 0 1.848c0 .636.476 1.145 1.219 1.145h.014c.77 0 1.252-.509 1.245-1.145zm7.811 4.883c0-2.036-1.085-2.988-2.539-2.988-1.192 0-1.715.664-2.003 1.119h.014v-.964H3.557s.027.623 0 6.638h2.204V6.832c0-.201.02-.396.073-.543.161-.395.523-.804 1.133-.804.797 0 1.118.61 1.118 1.501v3.55h2.204V6.731z"/></symbol><symbol id="icon--logo" viewBox="0 0 188 22"><text font-family="BasicSansSerif7" fill="#636666" font-size="30" y="22.062">CARFT LANCE</text></symbol><symbol id="icon--mail" viewBox="0 0 13 11"><path fill-rule="evenodd" fill="#FEFEFE" d="M12.061 9.768a.239.239 0 01-.232.232H1.16a.238.238 0 01-.232-.232V4.202c.152.174.319.333.5.478a98.64 98.64 0 013.087 2.45c.544.456 1.218 1.015 1.972 1.015h.014c.754 0 1.428-.559 1.972-1.015a98.64 98.64 0 013.087-2.45c.182-.145.348-.304.501-.478v5.566zm0-7.618c0 .617-.595 1.421-1.066 1.791-.971.761-1.942 1.529-2.906 2.297-.384.312-1.08.979-1.588.979h-.014c-.507 0-1.203-.667-1.587-.979a465.374 465.374 0 00-2.907-2.297C1.341 3.426.928 2.709.928 1.882c0-.123.108-.232.232-.232h10.669c.275 0 .232.319.232.5zm.927-.268c0-.637-.522-1.159-1.159-1.159H1.16C.522.723 0 1.245 0 1.882v7.886c0 .638.522 1.16 1.16 1.16h10.669c.637 0 1.159-.522 1.159-1.16V1.882z"/></symbol><symbol id="icon--mark" viewBox="0 0 8 7"><path fill-rule="evenodd" fill="red" d="M7.283 5.583a.546.546 0 00-.156-.38L5.485 3.561 7.127 1.92a.544.544 0 000-.76l-.76-.759a.54.54 0 00-.759 0L3.966 2.042 2.324.401a.54.54 0 00-.76 0l-.759.759a.54.54 0 000 .76l1.642 1.641L.805 5.203a.543.543 0 000 .76l.759.759a.54.54 0 00.76 0L3.966 5.08l1.642 1.642a.539.539 0 00.759 0l.76-.759c.1-.101.156-.24.156-.38z"/></symbol><symbol id="icon--mmechanism" viewBox="0 0 65 60"><path fill-rule="evenodd" fill="#5DB442" d="M30.432 29.911c0 4.72-3.85 8.57-8.571 8.57-4.72 0-8.57-3.85-8.57-8.57 0-4.721 3.85-8.571 8.57-8.571 4.721 0 8.571 3.85 8.571 8.571zm25.71 17.14a4.293 4.293 0 01-4.285 4.285 4.293 4.293 0 01-4.285-4.285c0-2.343 1.942-4.285 4.285-4.285 2.344 0 4.285 1.942 4.285 4.285zm0-34.281a4.293 4.293 0 01-4.285 4.285 4.293 4.293 0 01-4.285-4.285c0-2.343 1.942-4.285 4.285-4.285 2.344 0 4.285 1.942 4.285 4.285zM43.287 26.864c0-.469-.335-.904-.803-1.004l-5.089-.77c-.301-.938-.703-1.841-1.138-2.745.937-1.306 1.941-2.511 2.912-3.817.134-.201.235-.402.235-.636 0-.937-3.951-4.553-4.821-5.356a1.077 1.077 0 00-.703-.268c-.235 0-.469.067-.67.234l-3.95 2.98c-.804-.402-1.641-.77-2.511-1.038l-.77-5.122c-.067-.469-.536-.837-1.004-.837h-6.227c-.469 0-.871.335-1.005.803-.435 1.641-.602 3.482-.77 5.156-.903.301-1.74.636-2.577 1.071l-3.85-3.013a1.261 1.261 0 00-.703-.234c-.971 0-4.721 4.051-5.39 4.955-.168.2-.235.435-.235.669 0 .234.101.469.235.67 1.071 1.272 2.075 2.511 3.013 3.85-.435.837-.804 1.674-1.071 2.544l-5.19.803c-.435.067-.77.57-.77 1.005v6.193c0 .469.335.904.804.971l5.089.803c.301.938.703 1.842 1.171 2.746-.971 1.305-1.975 2.544-2.946 3.816-.134.201-.234.402-.234.636 0 .971 3.95 4.553 4.821 5.357.201.167.435.267.703.267.234 0 .502-.067.669-.234l3.951-2.979c.803.401 1.64.77 2.51 1.037l.77 5.122c.067.469.536.837 1.005.837h6.227c.468 0 .87-.334 1.004-.803.435-1.64.603-3.482.77-5.189a14.341 14.341 0 002.578-1.038l3.85 3.013c.201.134.435.234.703.234.971 0 4.72-4.084 5.39-4.988.167-.167.234-.401.234-.636 0-.268-.1-.469-.234-.669-1.072-1.273-2.076-2.511-3.013-3.85.435-.837.803-1.674 1.071-2.545l5.189-.803c.435-.067.77-.569.77-1.004v-6.194zm21.426 17.844c0-.502-4.319-.971-4.988-1.038a9.035 9.035 0 00-1.005-1.741c.302-.669 1.708-4.017 1.708-4.62a.29.29 0 00-.134-.234c-.402-.234-3.984-2.344-4.152-2.344l-.2.067c-1.139 1.139-2.143 2.444-3.08 3.75a9.975 9.975 0 00-1.005-.067c-.334 0-.669.033-1.004.067-.335-.502-2.846-3.817-3.281-3.817-.167 0-3.749 2.143-4.151 2.344a.29.29 0 00-.134.234c0 .569 1.406 3.951 1.707 4.62a9.083 9.083 0 00-1.004 1.741c-.669.067-4.988.536-4.988 1.038v4.687c0 .502 4.319.971 4.988 1.038a8.15 8.15 0 001.004 1.74c-.301.67-1.707 4.051-1.707 4.62 0 .067.034.168.134.235.402.234 3.984 2.377 4.151 2.377.435 0 2.946-3.348 3.281-3.85.335.033.67.067 1.004.067.335 0 .67-.034 1.005-.067.334.502 2.845 3.85 3.28 3.85.168 0 3.75-2.143 4.152-2.377.1-.067.134-.134.134-.235 0-.602-1.406-3.95-1.708-4.62a8.112 8.112 0 001.005-1.74c.669-.067 4.988-.536 4.988-1.038v-4.687zm0-34.281c0-.503-4.319-.971-4.988-1.038a9.035 9.035 0 00-1.005-1.741c.302-.67 1.708-4.017 1.708-4.62a.29.29 0 00-.134-.234C59.892 2.559 56.31.45 56.142.45l-.2.067c-1.139 1.138-2.143 2.444-3.08 3.75a9.975 9.975 0 00-1.005-.067c-.334 0-.669.033-1.004.067C50.518 3.765 48.007.45 47.572.45c-.167 0-3.749 2.143-4.151 2.344a.29.29 0 00-.134.234c0 .569 1.406 3.95 1.707 4.62a9.083 9.083 0 00-1.004 1.741c-.669.067-4.988.535-4.988 1.038v4.686c0 .503 4.319.971 4.988 1.038a8.182 8.182 0 001.004 1.741c-.301.67-1.707 4.051-1.707 4.62a.29.29 0 00.134.234c.402.235 3.984 2.377 4.151 2.377.435 0 2.946-3.347 3.281-3.85.335.034.67.067 1.004.067.335 0 .67-.033 1.005-.067.334.503 2.845 3.85 3.28 3.85.168 0 3.75-2.142 4.152-2.377.1-.067.134-.133.134-.234 0-.603-1.406-3.95-1.708-4.62a8.143 8.143 0 001.005-1.741c.669-.067 4.988-.535 4.988-1.038v-4.686z"/></symbol><symbol id="icon--phone" viewBox="0 0 11 11"><path fill-rule="evenodd" fill="#FEFEFE" d="M10.205 8.855c0-.051 0-.102-.022-.153-.05-.152-.406-.311-.551-.384-.413-.232-.833-.456-1.239-.696-.188-.115-.42-.333-.645-.333-.442 0-1.087 1.312-1.479 1.312-.195 0-.449-.181-.623-.283-1.319-.732-2.232-1.645-2.964-2.964-.102-.174-.283-.428-.283-.623 0-.392 1.312-1.037 1.312-1.479 0-.225-.218-.457-.333-.645-.24-.406-.464-.826-.696-1.239-.073-.145-.232-.501-.384-.551-.051-.022-.102-.022-.153-.022-.261 0-.768.116-1.007.225-.355.152-.587.558-.768.884-.232.427-.37.862-.37 1.348 0 .674.275 1.283.5 1.899.16.442.355.87.602 1.268.761 1.232 2.247 2.718 3.479 3.479.398.247.826.442 1.268.602.616.225 1.225.5 1.899.5.486 0 .921-.138 1.348-.37.326-.181.732-.413.884-.768.109-.239.225-.746.225-1.007z"/></symbol><symbol id="icon--plant" viewBox="0 0 48 61"><path fill-rule="evenodd" fill="#5DB442" d="M47.443 37.841c-10.881-8.772-21.024 2.443-21.024 2.443a51.611 51.611 0 002.443-9.474s16.84 3.381 17.342-12.989c-11.148-3.85-16.672 7.03-16.672 7.03.067-1.172.067-3.883 0-4.084 0 0 7.733-14.596-7.499-19.852-8.336 11.181 4.653 20.187 4.653 20.187 0 .1-.2 4.486-.401 6.528 0 0-4.085-15.233-18.647-9.374 1.205 14.663 18.278 11.985 18.278 11.985-.569 3.515-1.439 6.763-2.644 9.742-2.344-4.185-8.47-11.048-21.794-5.557 5.256 13.458 14.73 11.985 19.751 10.043-4.486 8.236-11.348 13.425-19.216 13.458-.837 0-1.506.636-1.506 1.473a1.5 1.5 0 001.506 1.507c9.441-.034 17.61-6.461 22.564-16.471 0 0 16.137 10.11 22.866-6.595z"/></symbol><symbol id="icon--sgprocces" viewBox="0 0 16 16"><path d="M4.568 11.971a.303.303 0 000-.411.303.303 0 00-.411 0l-2.285 2.285a.303.303 0 000 .411.31.31 0 00.205.08.31.31 0 00.205-.08l2.286-2.285zm1.508.366a.282.282 0 00-.286-.286.282.282 0 00-.285.286v2.856c0 .161.125.286.285.286a.282.282 0 00.286-.286v-2.856zm-1.999-2a.282.282 0 00-.286-.285H.934a.282.282 0 00-.285.285c0 .161.125.286.285.286h2.857a.282.282 0 00.286-.286zM15.36 11.48c0-.687-.268-1.33-.75-1.821l-3-2.999a2.498 2.498 0 00-.499-.375l-.161 2.133 2.446 2.455a.854.854 0 010 1.205l-1.312 1.303c-.322.322-.893.313-1.214-.009l-2.437-2.445-2.134.16c.107.179.223.348.375.5l2.982 2.99a2.536 2.536 0 001.821.759c.687 0 1.33-.259 1.812-.741l1.312-1.303a2.518 2.518 0 00.759-1.812zM9.852 5.017a2.533 2.533 0 00-.375-.5l-2.981-2.99A2.538 2.538 0 004.675.768c-.688 0-1.33.259-1.812.741L1.55 2.812a2.517 2.517 0 00-.758 1.813c0 .687.267 1.33.749 1.821l3 2.999c.151.152.321.268.5.375l.16-2.143-2.446-2.445a.853.853 0 010-1.206l1.313-1.303a.878.878 0 01.607-.241.85.85 0 01.607.25l2.437 2.446 2.133-.161zm5.65.75a.282.282 0 00-.285-.286H12.36a.282.282 0 00-.285.286c0 .161.125.286.285.286h2.857c.16 0 .285-.125.285-.286zM10.646.911a.281.281 0 00-.285-.285.281.281 0 00-.286.285v2.857c0 .16.125.285.286.285.16 0 .285-.125.285-.285V.911zm3.633 1.348a.301.301 0 000-.411.302.302 0 00-.41 0l-2.285 2.286a.302.302 0 000 .41.312.312 0 00.205.081.312.312 0 00.205-.081l2.285-2.285z"/></symbol><symbol id="icon--singin" viewBox="0 0 70 58"><path d="M53.434 29.426c0-.759-.312-1.474-.848-2.009L28.298 3.129a2.84 2.84 0 00-2.009-.849 2.878 2.878 0 00-2.858 2.858v12.858H3.43a2.878 2.878 0 00-2.858 2.858v17.144a2.877 2.877 0 002.858 2.857h20.001v12.859a2.877 2.877 0 002.858 2.857 2.84 2.84 0 002.009-.848l24.288-24.288a2.84 2.84 0 00.848-2.009zM69.15 13.71C69.15 6.611 63.391.852 56.292.852H42.005c-2.009 0-1.429 3.036-1.429 4.286 0 1.652 1.741 1.428 2.857 1.428h12.859c3.929 0 7.143 3.215 7.143 7.144v31.432c0 3.929-3.214 7.143-7.143 7.143H42.005c-2.009 0-1.429 3.036-1.429 4.286 0 .759.67 1.429 1.429 1.429h14.287c7.099 0 12.858-5.759 12.858-12.858V13.71z"/></symbol><symbol id="icon--tw" viewBox="0 0 11 9"><path fill-rule="evenodd" fill="#FEFEFE" d="M10.852 1.444a4.365 4.365 0 01-1.246.335c.449-.268.79-.69.951-1.192a4.28 4.28 0 01-1.373.522A2.158 2.158 0 007.603.426a2.163 2.163 0 00-2.164 2.163c0 .168.02.335.054.496A6.15 6.15 0 011.032.821a2.165 2.165 0 00.669 2.894 2.184 2.184 0 01-.978-.275v.027c0 1.052.744 1.922 1.735 2.123-.18.047-.375.074-.569.074-.141 0-.275-.013-.409-.033a2.168 2.168 0 002.023 1.5 4.329 4.329 0 01-2.686.924c-.181 0-.348-.006-.522-.026A6.114 6.114 0 003.617 9c3.979 0 6.156-3.296 6.156-6.156 0-.094 0-.188-.006-.281a4.65 4.65 0 001.085-1.119z"/></symbol></svg>